<mxfile host="Electron" modified="2023-09-14T16:50:08.024Z" agent="Mozilla/5.0 (Windows NT 10.0; Win64; x64) AppleWebKit/537.36 (KHTML, like Gecko) draw.io/21.6.8 Chrome/114.0.5735.289 Electron/25.5.0 Safari/537.36" etag="NxIq0vILtzYiVfUAYXR_" version="21.6.8" type="device" pages="5">
  <diagram id="YGf_c_5mHE16U1Z5lPLA" name="signup">
    <mxGraphModel dx="780" dy="512" grid="1" gridSize="10" guides="1" tooltips="1" connect="1" arrows="1" fold="1" page="1" pageScale="1" pageWidth="850" pageHeight="1100" math="0" shadow="0">
      <root>
        <mxCell id="0" />
        <mxCell id="1" parent="0" />
        <mxCell id="GX3pyJZaXBObSDuGrAC7-1" value="" style="edgeStyle=orthogonalEdgeStyle;rounded=0;orthogonalLoop=1;jettySize=auto;html=1;" parent="1" source="GX3pyJZaXBObSDuGrAC7-2" edge="1">
          <mxGeometry relative="1" as="geometry">
            <mxPoint x="160" y="1280" as="targetPoint" />
          </mxGeometry>
        </mxCell>
        <mxCell id="GX3pyJZaXBObSDuGrAC7-2" value="Client" style="rounded=0;whiteSpace=wrap;html=1;" parent="1" vertex="1">
          <mxGeometry x="100" y="720" width="120" height="40" as="geometry" />
        </mxCell>
        <mxCell id="GX3pyJZaXBObSDuGrAC7-3" value="" style="edgeStyle=orthogonalEdgeStyle;rounded=0;orthogonalLoop=1;jettySize=auto;html=1;" parent="1" source="GX3pyJZaXBObSDuGrAC7-4" edge="1">
          <mxGeometry relative="1" as="geometry">
            <mxPoint x="460" y="1270" as="targetPoint" />
          </mxGeometry>
        </mxCell>
        <mxCell id="GX3pyJZaXBObSDuGrAC7-4" value="Auth" style="rounded=0;whiteSpace=wrap;html=1;" parent="1" vertex="1">
          <mxGeometry x="400" y="720" width="120" height="40" as="geometry" />
        </mxCell>
        <mxCell id="GX3pyJZaXBObSDuGrAC7-5" value="" style="edgeStyle=orthogonalEdgeStyle;rounded=0;orthogonalLoop=1;jettySize=auto;html=1;" parent="1" source="GX3pyJZaXBObSDuGrAC7-6" edge="1">
          <mxGeometry relative="1" as="geometry">
            <mxPoint x="700" y="1190" as="targetPoint" />
          </mxGeometry>
        </mxCell>
        <mxCell id="GX3pyJZaXBObSDuGrAC7-6" value="Project" style="rounded=0;whiteSpace=wrap;html=1;" parent="1" vertex="1">
          <mxGeometry x="640" y="720" width="120" height="40" as="geometry" />
        </mxCell>
        <mxCell id="GX3pyJZaXBObSDuGrAC7-7" value="" style="endArrow=classic;html=1;rounded=0;" parent="1" edge="1">
          <mxGeometry width="50" height="50" relative="1" as="geometry">
            <mxPoint x="160" y="810" as="sourcePoint" />
            <mxPoint x="460" y="820" as="targetPoint" />
          </mxGeometry>
        </mxCell>
        <mxCell id="GX3pyJZaXBObSDuGrAC7-8" value="1" style="ellipse;whiteSpace=wrap;html=1;aspect=fixed;" parent="1" vertex="1">
          <mxGeometry x="210" y="780" width="20" height="20" as="geometry" />
        </mxCell>
        <mxCell id="GX3pyJZaXBObSDuGrAC7-9" value="client sends email and&lt;br&gt;password login" style="text;html=1;align=left;verticalAlign=middle;resizable=1;points=[];autosize=1;strokeColor=none;fillColor=none;movable=1;rotatable=1;deletable=1;editable=1;locked=0;connectable=1;" parent="1" vertex="1">
          <mxGeometry x="240" y="770" width="140" height="40" as="geometry" />
        </mxCell>
        <mxCell id="GX3pyJZaXBObSDuGrAC7-10" value="2" style="ellipse;whiteSpace=wrap;html=1;aspect=fixed;" parent="1" vertex="1">
          <mxGeometry x="480" y="810" width="20" height="20" as="geometry" />
        </mxCell>
        <mxCell id="GX3pyJZaXBObSDuGrAC7-11" value="auth service verifies user credentials to generate&amp;nbsp;&lt;br&gt;accessToken, and refreshToken" style="text;whiteSpace=wrap;html=1;" parent="1" vertex="1">
          <mxGeometry x="510" y="800" width="180" height="60" as="geometry" />
        </mxCell>
        <mxCell id="GX3pyJZaXBObSDuGrAC7-12" value="3" style="ellipse;whiteSpace=wrap;html=1;aspect=fixed;" parent="1" vertex="1">
          <mxGeometry x="480" y="880" width="20" height="20" as="geometry" />
        </mxCell>
        <mxCell id="GX3pyJZaXBObSDuGrAC7-13" value="stores refreshTokens in database" style="text;whiteSpace=wrap;html=1;" parent="1" vertex="1">
          <mxGeometry x="510" y="875" width="200" height="30" as="geometry" />
        </mxCell>
        <mxCell id="GX3pyJZaXBObSDuGrAC7-14" value="" style="endArrow=classic;html=1;rounded=0;" parent="1" edge="1">
          <mxGeometry width="50" height="50" relative="1" as="geometry">
            <mxPoint x="470" y="820" as="sourcePoint" />
            <mxPoint x="470" y="890" as="targetPoint" />
          </mxGeometry>
        </mxCell>
        <mxCell id="GX3pyJZaXBObSDuGrAC7-15" value="" style="endArrow=classic;html=1;rounded=0;" parent="1" edge="1">
          <mxGeometry width="50" height="50" relative="1" as="geometry">
            <mxPoint x="460" y="890" as="sourcePoint" />
            <mxPoint x="160" y="900" as="targetPoint" />
          </mxGeometry>
        </mxCell>
        <mxCell id="GX3pyJZaXBObSDuGrAC7-16" value="4" style="ellipse;whiteSpace=wrap;html=1;aspect=fixed;" parent="1" vertex="1">
          <mxGeometry x="210" y="850" width="20" height="20" as="geometry" />
        </mxCell>
        <mxCell id="GX3pyJZaXBObSDuGrAC7-17" value="accessToken and refreshToken are&#xa;sent to client with Set-Cookie header&#xa;with HttpOnly flag" style="text;whiteSpace=wrap;html=1;" parent="1" vertex="1">
          <mxGeometry x="240" y="830" width="200" height="60" as="geometry" />
        </mxCell>
        <mxCell id="GX3pyJZaXBObSDuGrAC7-18" value="" style="endArrow=classic;html=1;rounded=0;" parent="1" edge="1">
          <mxGeometry width="50" height="50" relative="1" as="geometry">
            <mxPoint x="150" y="900" as="sourcePoint" />
            <mxPoint x="150" y="980" as="targetPoint" />
          </mxGeometry>
        </mxCell>
        <mxCell id="GX3pyJZaXBObSDuGrAC7-19" value="5" style="ellipse;whiteSpace=wrap;html=1;aspect=fixed;" parent="1" vertex="1">
          <mxGeometry x="120" y="890" width="20" height="20" as="geometry" />
        </mxCell>
        <mxCell id="GX3pyJZaXBObSDuGrAC7-20" value="client now has accessToken and refreshToken stored in cookies." style="text;whiteSpace=wrap;html=1;" parent="1" vertex="1">
          <mxGeometry x="10" y="880" width="110" height="70" as="geometry" />
        </mxCell>
        <mxCell id="GX3pyJZaXBObSDuGrAC7-21" value="accessToken expires in 15mins" style="text;whiteSpace=wrap;html=1;" parent="1" vertex="1">
          <mxGeometry x="10" y="960" width="110" height="40" as="geometry" />
        </mxCell>
        <mxCell id="GX3pyJZaXBObSDuGrAC7-22" value="6" style="ellipse;whiteSpace=wrap;html=1;aspect=fixed;" parent="1" vertex="1">
          <mxGeometry x="120" y="970" width="20" height="20" as="geometry" />
        </mxCell>
        <mxCell id="GX3pyJZaXBObSDuGrAC7-23" value="7" style="ellipse;whiteSpace=wrap;html=1;aspect=fixed;" parent="1" vertex="1">
          <mxGeometry x="210" y="950" width="20" height="20" as="geometry" />
        </mxCell>
        <mxCell id="GX3pyJZaXBObSDuGrAC7-24" value="" style="endArrow=classic;html=1;rounded=0;" parent="1" edge="1">
          <mxGeometry width="50" height="50" relative="1" as="geometry">
            <mxPoint x="160" y="980" as="sourcePoint" />
            <mxPoint x="700" y="1000" as="targetPoint" />
          </mxGeometry>
        </mxCell>
        <mxCell id="GX3pyJZaXBObSDuGrAC7-25" value="client tries to send request &lt;br&gt;using&amp;nbsp;expired accessToken" style="text;whiteSpace=wrap;html=1;" parent="1" vertex="1">
          <mxGeometry x="240" y="940" width="150" height="40" as="geometry" />
        </mxCell>
        <mxCell id="GX3pyJZaXBObSDuGrAC7-26" value="8" style="ellipse;whiteSpace=wrap;html=1;aspect=fixed;" parent="1" vertex="1">
          <mxGeometry x="720" y="1015" width="20" height="20" as="geometry" />
        </mxCell>
        <mxCell id="GX3pyJZaXBObSDuGrAC7-27" value="verifies that token is expired or invalid, then send 401 back to client" style="text;whiteSpace=wrap;html=1;" parent="1" vertex="1">
          <mxGeometry x="750" y="980" width="90" height="90" as="geometry" />
        </mxCell>
        <mxCell id="GX3pyJZaXBObSDuGrAC7-28" value="" style="endArrow=classic;html=1;rounded=0;" parent="1" edge="1">
          <mxGeometry width="50" height="50" relative="1" as="geometry">
            <mxPoint x="710" y="1000" as="sourcePoint" />
            <mxPoint x="710" y="1050" as="targetPoint" />
          </mxGeometry>
        </mxCell>
        <mxCell id="GX3pyJZaXBObSDuGrAC7-29" value="" style="endArrow=classic;html=1;rounded=0;" parent="1" edge="1">
          <mxGeometry width="50" height="50" relative="1" as="geometry">
            <mxPoint x="700" y="1050" as="sourcePoint" />
            <mxPoint x="160" y="1070" as="targetPoint" />
          </mxGeometry>
        </mxCell>
        <mxCell id="GX3pyJZaXBObSDuGrAC7-30" value="client gets 401, if refreshToken exists, stores the failed request in memory and sends the request to get new accessToken" style="text;whiteSpace=wrap;html=1;" parent="1" vertex="1">
          <mxGeometry x="10" y="1040" width="110" height="110" as="geometry" />
        </mxCell>
        <mxCell id="GX3pyJZaXBObSDuGrAC7-31" value="9" style="ellipse;whiteSpace=wrap;html=1;aspect=fixed;" parent="1" vertex="1">
          <mxGeometry x="125" y="1085" width="20" height="20" as="geometry" />
        </mxCell>
        <mxCell id="GX3pyJZaXBObSDuGrAC7-32" value="" style="endArrow=classic;html=1;rounded=0;" parent="1" edge="1">
          <mxGeometry width="50" height="50" relative="1" as="geometry">
            <mxPoint x="150" y="1070" as="sourcePoint" />
            <mxPoint x="150" y="1130" as="targetPoint" />
          </mxGeometry>
        </mxCell>
        <mxCell id="GX3pyJZaXBObSDuGrAC7-33" value="" style="endArrow=classic;html=1;rounded=0;" parent="1" edge="1">
          <mxGeometry width="50" height="50" relative="1" as="geometry">
            <mxPoint x="160" y="1130" as="sourcePoint" />
            <mxPoint x="460" y="1140" as="targetPoint" />
          </mxGeometry>
        </mxCell>
        <mxCell id="GX3pyJZaXBObSDuGrAC7-34" value="10" style="ellipse;whiteSpace=wrap;html=1;aspect=fixed;verticalAlign=middle;" parent="1" vertex="1">
          <mxGeometry x="480" y="1150" width="20" height="20" as="geometry" />
        </mxCell>
        <mxCell id="GX3pyJZaXBObSDuGrAC7-35" value="verifies that refreshToken is in database or is not revoked, then generates and send new accessToken to client" style="text;whiteSpace=wrap;html=1;verticalAlign=middle;" parent="1" vertex="1">
          <mxGeometry x="510" y="1120" width="150" height="80" as="geometry" />
        </mxCell>
        <mxCell id="GX3pyJZaXBObSDuGrAC7-36" value="" style="endArrow=classic;html=1;rounded=0;" parent="1" edge="1">
          <mxGeometry width="50" height="50" relative="1" as="geometry">
            <mxPoint x="469.52" y="1140" as="sourcePoint" />
            <mxPoint x="470" y="1190" as="targetPoint" />
          </mxGeometry>
        </mxCell>
        <mxCell id="GX3pyJZaXBObSDuGrAC7-37" value="" style="endArrow=classic;html=1;rounded=0;" parent="1" edge="1">
          <mxGeometry width="50" height="50" relative="1" as="geometry">
            <mxPoint x="460" y="1190" as="sourcePoint" />
            <mxPoint x="160" y="1200" as="targetPoint" />
          </mxGeometry>
        </mxCell>
        <mxCell id="GX3pyJZaXBObSDuGrAC7-38" value="11" style="ellipse;whiteSpace=wrap;html=1;aspect=fixed;verticalAlign=middle;" parent="1" vertex="1">
          <mxGeometry x="125" y="1220" width="20" height="20" as="geometry" />
        </mxCell>
        <mxCell id="GX3pyJZaXBObSDuGrAC7-39" value="" style="endArrow=classic;html=1;rounded=0;" parent="1" edge="1">
          <mxGeometry width="50" height="50" relative="1" as="geometry">
            <mxPoint x="150" y="1200" as="sourcePoint" />
            <mxPoint x="150" y="1260" as="targetPoint" />
          </mxGeometry>
        </mxCell>
        <mxCell id="GX3pyJZaXBObSDuGrAC7-40" value="client gets new accessToken and&lt;br&gt;if there was failed request (due to 401), resend that request&amp;nbsp;" style="text;whiteSpace=wrap;html=1;" parent="1" vertex="1">
          <mxGeometry x="15" y="1180" width="110" height="90" as="geometry" />
        </mxCell>
        <mxCell id="GX3pyJZaXBObSDuGrAC7-164" value="" style="edgeStyle=orthogonalEdgeStyle;rounded=0;orthogonalLoop=1;jettySize=auto;html=1;" parent="1" source="GX3pyJZaXBObSDuGrAC7-165" edge="1">
          <mxGeometry relative="1" as="geometry">
            <mxPoint x="160" y="570" as="targetPoint" />
          </mxGeometry>
        </mxCell>
        <mxCell id="GX3pyJZaXBObSDuGrAC7-165" value="Client" style="rounded=0;whiteSpace=wrap;html=1;" parent="1" vertex="1">
          <mxGeometry x="100" y="10" width="120" height="40" as="geometry" />
        </mxCell>
        <mxCell id="GX3pyJZaXBObSDuGrAC7-166" value="" style="edgeStyle=orthogonalEdgeStyle;rounded=0;orthogonalLoop=1;jettySize=auto;html=1;" parent="1" source="GX3pyJZaXBObSDuGrAC7-167" edge="1">
          <mxGeometry relative="1" as="geometry">
            <mxPoint x="460" y="560" as="targetPoint" />
          </mxGeometry>
        </mxCell>
        <mxCell id="GX3pyJZaXBObSDuGrAC7-167" value="Identity" style="rounded=0;whiteSpace=wrap;html=1;" parent="1" vertex="1">
          <mxGeometry x="400" y="10" width="120" height="40" as="geometry" />
        </mxCell>
        <mxCell id="GX3pyJZaXBObSDuGrAC7-168" value="" style="edgeStyle=orthogonalEdgeStyle;rounded=0;orthogonalLoop=1;jettySize=auto;html=1;" parent="1" source="GX3pyJZaXBObSDuGrAC7-169" edge="1">
          <mxGeometry relative="1" as="geometry">
            <mxPoint x="700" y="480" as="targetPoint" />
          </mxGeometry>
        </mxCell>
        <mxCell id="GX3pyJZaXBObSDuGrAC7-169" value="Project" style="rounded=0;whiteSpace=wrap;html=1;" parent="1" vertex="1">
          <mxGeometry x="640" y="10" width="120" height="40" as="geometry" />
        </mxCell>
        <mxCell id="GX3pyJZaXBObSDuGrAC7-170" value="" style="endArrow=classic;html=1;rounded=0;" parent="1" edge="1">
          <mxGeometry width="50" height="50" relative="1" as="geometry">
            <mxPoint x="160" y="100" as="sourcePoint" />
            <mxPoint x="460" y="110" as="targetPoint" />
          </mxGeometry>
        </mxCell>
        <mxCell id="GX3pyJZaXBObSDuGrAC7-171" value="1" style="ellipse;whiteSpace=wrap;html=1;aspect=fixed;" parent="1" vertex="1">
          <mxGeometry x="210" y="70" width="20" height="20" as="geometry" />
        </mxCell>
        <mxCell id="GX3pyJZaXBObSDuGrAC7-172" value="client sends email and&lt;br&gt;password to /register" style="text;html=1;align=left;verticalAlign=middle;resizable=1;points=[];autosize=1;strokeColor=none;fillColor=none;movable=1;rotatable=1;deletable=1;editable=1;locked=0;connectable=1;" parent="1" vertex="1">
          <mxGeometry x="240" y="60" width="140" height="40" as="geometry" />
        </mxCell>
        <mxCell id="GX3pyJZaXBObSDuGrAC7-173" value="2" style="ellipse;whiteSpace=wrap;html=1;aspect=fixed;" parent="1" vertex="1">
          <mxGeometry x="480" y="100" width="20" height="20" as="geometry" />
        </mxCell>
        <mxCell id="GX3pyJZaXBObSDuGrAC7-174" value="creates new user, stores there info in database and generates&amp;nbsp;&lt;br&gt;accessToken, and refreshToken" style="text;whiteSpace=wrap;html=1;" parent="1" vertex="1">
          <mxGeometry x="510" y="90" width="180" height="60" as="geometry" />
        </mxCell>
        <mxCell id="GX3pyJZaXBObSDuGrAC7-175" value="3" style="ellipse;whiteSpace=wrap;html=1;aspect=fixed;" parent="1" vertex="1">
          <mxGeometry x="480" y="170" width="20" height="20" as="geometry" />
        </mxCell>
        <mxCell id="GX3pyJZaXBObSDuGrAC7-176" value="stores refreshTokens in database" style="text;whiteSpace=wrap;html=1;" parent="1" vertex="1">
          <mxGeometry x="510" y="165" width="200" height="30" as="geometry" />
        </mxCell>
        <mxCell id="GX3pyJZaXBObSDuGrAC7-177" value="" style="endArrow=classic;html=1;rounded=0;" parent="1" edge="1">
          <mxGeometry width="50" height="50" relative="1" as="geometry">
            <mxPoint x="470" y="110" as="sourcePoint" />
            <mxPoint x="470" y="180" as="targetPoint" />
          </mxGeometry>
        </mxCell>
        <mxCell id="GX3pyJZaXBObSDuGrAC7-178" value="" style="endArrow=classic;html=1;rounded=0;" parent="1" edge="1">
          <mxGeometry width="50" height="50" relative="1" as="geometry">
            <mxPoint x="460" y="180" as="sourcePoint" />
            <mxPoint x="160" y="190" as="targetPoint" />
          </mxGeometry>
        </mxCell>
        <mxCell id="GX3pyJZaXBObSDuGrAC7-179" value="4" style="ellipse;whiteSpace=wrap;html=1;aspect=fixed;" parent="1" vertex="1">
          <mxGeometry x="210" y="140" width="20" height="20" as="geometry" />
        </mxCell>
        <mxCell id="GX3pyJZaXBObSDuGrAC7-180" value="accessToken and refreshToken are&#xa;sent to client with Set-Cookie header&#xa;with HttpOnly flag" style="text;whiteSpace=wrap;html=1;" parent="1" vertex="1">
          <mxGeometry x="240" y="120" width="200" height="60" as="geometry" />
        </mxCell>
        <mxCell id="GX3pyJZaXBObSDuGrAC7-181" value="" style="endArrow=classic;html=1;rounded=0;" parent="1" edge="1">
          <mxGeometry width="50" height="50" relative="1" as="geometry">
            <mxPoint x="150" y="190" as="sourcePoint" />
            <mxPoint x="150" y="270" as="targetPoint" />
          </mxGeometry>
        </mxCell>
        <mxCell id="GX3pyJZaXBObSDuGrAC7-182" value="5" style="ellipse;whiteSpace=wrap;html=1;aspect=fixed;" parent="1" vertex="1">
          <mxGeometry x="120" y="180" width="20" height="20" as="geometry" />
        </mxCell>
        <mxCell id="GX3pyJZaXBObSDuGrAC7-183" value="client now has accessToken and refreshToken stored in cookies." style="text;whiteSpace=wrap;html=1;" parent="1" vertex="1">
          <mxGeometry x="10" y="170" width="110" height="70" as="geometry" />
        </mxCell>
        <mxCell id="GX3pyJZaXBObSDuGrAC7-184" value="accessToken expires in 15mins" style="text;whiteSpace=wrap;html=1;" parent="1" vertex="1">
          <mxGeometry x="10" y="250" width="110" height="40" as="geometry" />
        </mxCell>
        <mxCell id="GX3pyJZaXBObSDuGrAC7-185" value="6" style="ellipse;whiteSpace=wrap;html=1;aspect=fixed;" parent="1" vertex="1">
          <mxGeometry x="120" y="260" width="20" height="20" as="geometry" />
        </mxCell>
        <mxCell id="GX3pyJZaXBObSDuGrAC7-186" value="7" style="ellipse;whiteSpace=wrap;html=1;aspect=fixed;" parent="1" vertex="1">
          <mxGeometry x="210" y="240" width="20" height="20" as="geometry" />
        </mxCell>
        <mxCell id="GX3pyJZaXBObSDuGrAC7-187" value="" style="endArrow=classic;html=1;rounded=0;" parent="1" edge="1">
          <mxGeometry width="50" height="50" relative="1" as="geometry">
            <mxPoint x="160" y="270" as="sourcePoint" />
            <mxPoint x="700" y="290" as="targetPoint" />
          </mxGeometry>
        </mxCell>
        <mxCell id="GX3pyJZaXBObSDuGrAC7-188" value="client tries to send request &lt;br&gt;using&amp;nbsp;expired accessToken" style="text;whiteSpace=wrap;html=1;" parent="1" vertex="1">
          <mxGeometry x="240" y="230" width="150" height="40" as="geometry" />
        </mxCell>
        <mxCell id="GX3pyJZaXBObSDuGrAC7-189" value="8" style="ellipse;whiteSpace=wrap;html=1;aspect=fixed;" parent="1" vertex="1">
          <mxGeometry x="720" y="305" width="20" height="20" as="geometry" />
        </mxCell>
        <mxCell id="GX3pyJZaXBObSDuGrAC7-190" value="verifies that token is expired or invalid, then send 401 back to client" style="text;whiteSpace=wrap;html=1;" parent="1" vertex="1">
          <mxGeometry x="750" y="270" width="90" height="90" as="geometry" />
        </mxCell>
        <mxCell id="GX3pyJZaXBObSDuGrAC7-191" value="" style="endArrow=classic;html=1;rounded=0;" parent="1" edge="1">
          <mxGeometry width="50" height="50" relative="1" as="geometry">
            <mxPoint x="710" y="290" as="sourcePoint" />
            <mxPoint x="710" y="340" as="targetPoint" />
          </mxGeometry>
        </mxCell>
        <mxCell id="GX3pyJZaXBObSDuGrAC7-192" value="" style="endArrow=classic;html=1;rounded=0;" parent="1" edge="1">
          <mxGeometry width="50" height="50" relative="1" as="geometry">
            <mxPoint x="700" y="340" as="sourcePoint" />
            <mxPoint x="160" y="360" as="targetPoint" />
          </mxGeometry>
        </mxCell>
        <mxCell id="GX3pyJZaXBObSDuGrAC7-193" value="client gets 401, if refreshToken exists, stores the failed request in memory and sends the request to get new accessToken" style="text;whiteSpace=wrap;html=1;" parent="1" vertex="1">
          <mxGeometry x="10" y="330" width="110" height="110" as="geometry" />
        </mxCell>
        <mxCell id="GX3pyJZaXBObSDuGrAC7-194" value="9" style="ellipse;whiteSpace=wrap;html=1;aspect=fixed;" parent="1" vertex="1">
          <mxGeometry x="125" y="375" width="20" height="20" as="geometry" />
        </mxCell>
        <mxCell id="GX3pyJZaXBObSDuGrAC7-195" value="" style="endArrow=classic;html=1;rounded=0;" parent="1" edge="1">
          <mxGeometry width="50" height="50" relative="1" as="geometry">
            <mxPoint x="150" y="360" as="sourcePoint" />
            <mxPoint x="150" y="420" as="targetPoint" />
          </mxGeometry>
        </mxCell>
        <mxCell id="GX3pyJZaXBObSDuGrAC7-196" value="" style="endArrow=classic;html=1;rounded=0;" parent="1" edge="1">
          <mxGeometry width="50" height="50" relative="1" as="geometry">
            <mxPoint x="160" y="420" as="sourcePoint" />
            <mxPoint x="460" y="430" as="targetPoint" />
          </mxGeometry>
        </mxCell>
        <mxCell id="GX3pyJZaXBObSDuGrAC7-197" value="10" style="ellipse;whiteSpace=wrap;html=1;aspect=fixed;verticalAlign=middle;" parent="1" vertex="1">
          <mxGeometry x="480" y="440" width="20" height="20" as="geometry" />
        </mxCell>
        <mxCell id="GX3pyJZaXBObSDuGrAC7-198" value="verifies that refreshToken is in database or is not revoked, then generates and send new accessToken to client" style="text;whiteSpace=wrap;html=1;verticalAlign=middle;" parent="1" vertex="1">
          <mxGeometry x="510" y="410" width="150" height="80" as="geometry" />
        </mxCell>
        <mxCell id="GX3pyJZaXBObSDuGrAC7-199" value="" style="endArrow=classic;html=1;rounded=0;" parent="1" edge="1">
          <mxGeometry width="50" height="50" relative="1" as="geometry">
            <mxPoint x="469.52" y="430" as="sourcePoint" />
            <mxPoint x="470" y="480" as="targetPoint" />
          </mxGeometry>
        </mxCell>
        <mxCell id="GX3pyJZaXBObSDuGrAC7-200" value="" style="endArrow=classic;html=1;rounded=0;" parent="1" edge="1">
          <mxGeometry width="50" height="50" relative="1" as="geometry">
            <mxPoint x="460" y="480" as="sourcePoint" />
            <mxPoint x="160" y="490" as="targetPoint" />
          </mxGeometry>
        </mxCell>
        <mxCell id="GX3pyJZaXBObSDuGrAC7-201" value="11" style="ellipse;whiteSpace=wrap;html=1;aspect=fixed;verticalAlign=middle;" parent="1" vertex="1">
          <mxGeometry x="125" y="510" width="20" height="20" as="geometry" />
        </mxCell>
        <mxCell id="GX3pyJZaXBObSDuGrAC7-202" value="" style="endArrow=classic;html=1;rounded=0;" parent="1" edge="1">
          <mxGeometry width="50" height="50" relative="1" as="geometry">
            <mxPoint x="150" y="490" as="sourcePoint" />
            <mxPoint x="150" y="550" as="targetPoint" />
          </mxGeometry>
        </mxCell>
        <mxCell id="GX3pyJZaXBObSDuGrAC7-203" value="client gets new accessToken and&lt;br&gt;if there was failed request (due to 401), resend that request&amp;nbsp;" style="text;whiteSpace=wrap;html=1;" parent="1" vertex="1">
          <mxGeometry x="15" y="470" width="110" height="90" as="geometry" />
        </mxCell>
      </root>
    </mxGraphModel>
  </diagram>
  <diagram name="login" id="WvVoqsmBIFcxAnjL97i7">
    <mxGraphModel dx="780" dy="512" grid="1" gridSize="10" guides="1" tooltips="1" connect="1" arrows="1" fold="1" page="1" pageScale="1" pageWidth="850" pageHeight="1100" math="0" shadow="0">
      <root>
        <mxCell id="0" />
        <mxCell id="1" parent="0" />
        <mxCell id="afZgGf9lb-E4JnagjFy--84" value="" style="edgeStyle=orthogonalEdgeStyle;rounded=0;orthogonalLoop=1;jettySize=auto;html=1;" parent="1" source="afZgGf9lb-E4JnagjFy--79" edge="1">
          <mxGeometry relative="1" as="geometry">
            <mxPoint x="160" y="570" as="targetPoint" />
          </mxGeometry>
        </mxCell>
        <mxCell id="afZgGf9lb-E4JnagjFy--79" value="Client" style="rounded=0;whiteSpace=wrap;html=1;" parent="1" vertex="1">
          <mxGeometry x="100" y="10" width="120" height="40" as="geometry" />
        </mxCell>
        <mxCell id="afZgGf9lb-E4JnagjFy--86" value="" style="edgeStyle=orthogonalEdgeStyle;rounded=0;orthogonalLoop=1;jettySize=auto;html=1;" parent="1" source="afZgGf9lb-E4JnagjFy--81" edge="1">
          <mxGeometry relative="1" as="geometry">
            <mxPoint x="460" y="560" as="targetPoint" />
          </mxGeometry>
        </mxCell>
        <mxCell id="afZgGf9lb-E4JnagjFy--81" value="Auth" style="rounded=0;whiteSpace=wrap;html=1;" parent="1" vertex="1">
          <mxGeometry x="400" y="10" width="120" height="40" as="geometry" />
        </mxCell>
        <mxCell id="afZgGf9lb-E4JnagjFy--87" value="" style="edgeStyle=orthogonalEdgeStyle;rounded=0;orthogonalLoop=1;jettySize=auto;html=1;" parent="1" source="afZgGf9lb-E4JnagjFy--82" edge="1">
          <mxGeometry relative="1" as="geometry">
            <mxPoint x="700" y="480" as="targetPoint" />
          </mxGeometry>
        </mxCell>
        <mxCell id="afZgGf9lb-E4JnagjFy--82" value="Project" style="rounded=0;whiteSpace=wrap;html=1;" parent="1" vertex="1">
          <mxGeometry x="640" y="10" width="120" height="40" as="geometry" />
        </mxCell>
        <mxCell id="afZgGf9lb-E4JnagjFy--91" value="" style="endArrow=classic;html=1;rounded=0;" parent="1" edge="1">
          <mxGeometry width="50" height="50" relative="1" as="geometry">
            <mxPoint x="160" y="100" as="sourcePoint" />
            <mxPoint x="460" y="110" as="targetPoint" />
          </mxGeometry>
        </mxCell>
        <mxCell id="afZgGf9lb-E4JnagjFy--89" value="1" style="ellipse;whiteSpace=wrap;html=1;aspect=fixed;" parent="1" vertex="1">
          <mxGeometry x="210" y="70" width="20" height="20" as="geometry" />
        </mxCell>
        <mxCell id="afZgGf9lb-E4JnagjFy--90" value="client sends username and&#xa;password" style="text;html=1;align=left;verticalAlign=middle;resizable=1;points=[];autosize=1;strokeColor=none;fillColor=none;movable=1;rotatable=1;deletable=1;editable=1;locked=0;connectable=1;" parent="1" vertex="1">
          <mxGeometry x="240" y="60" width="170" height="40" as="geometry" />
        </mxCell>
        <mxCell id="afZgGf9lb-E4JnagjFy--100" value="2" style="ellipse;whiteSpace=wrap;html=1;aspect=fixed;" parent="1" vertex="1">
          <mxGeometry x="480" y="100" width="20" height="20" as="geometry" />
        </mxCell>
        <mxCell id="afZgGf9lb-E4JnagjFy--103" value="auth service verifies user credentials to generate&amp;nbsp;&lt;br&gt;accessToken, and refreshToken" style="text;whiteSpace=wrap;html=1;" parent="1" vertex="1">
          <mxGeometry x="510" y="90" width="180" height="60" as="geometry" />
        </mxCell>
        <mxCell id="afZgGf9lb-E4JnagjFy--104" value="3" style="ellipse;whiteSpace=wrap;html=1;aspect=fixed;" parent="1" vertex="1">
          <mxGeometry x="480" y="170" width="20" height="20" as="geometry" />
        </mxCell>
        <mxCell id="afZgGf9lb-E4JnagjFy--105" value="stores refreshTokens in database" style="text;whiteSpace=wrap;html=1;" parent="1" vertex="1">
          <mxGeometry x="510" y="165" width="200" height="30" as="geometry" />
        </mxCell>
        <mxCell id="afZgGf9lb-E4JnagjFy--106" value="" style="endArrow=classic;html=1;rounded=0;" parent="1" edge="1">
          <mxGeometry width="50" height="50" relative="1" as="geometry">
            <mxPoint x="470" y="110" as="sourcePoint" />
            <mxPoint x="470" y="180" as="targetPoint" />
          </mxGeometry>
        </mxCell>
        <mxCell id="afZgGf9lb-E4JnagjFy--107" value="" style="endArrow=classic;html=1;rounded=0;" parent="1" edge="1">
          <mxGeometry width="50" height="50" relative="1" as="geometry">
            <mxPoint x="460" y="180" as="sourcePoint" />
            <mxPoint x="160" y="190" as="targetPoint" />
          </mxGeometry>
        </mxCell>
        <mxCell id="afZgGf9lb-E4JnagjFy--111" value="4" style="ellipse;whiteSpace=wrap;html=1;aspect=fixed;" parent="1" vertex="1">
          <mxGeometry x="210" y="140" width="20" height="20" as="geometry" />
        </mxCell>
        <mxCell id="afZgGf9lb-E4JnagjFy--112" value="accessToken and refreshToken are&#xa;sent to client with Set-Cookie header&#xa;with HttpOnly flag" style="text;whiteSpace=wrap;html=1;" parent="1" vertex="1">
          <mxGeometry x="240" y="120" width="200" height="60" as="geometry" />
        </mxCell>
        <mxCell id="afZgGf9lb-E4JnagjFy--116" value="" style="endArrow=classic;html=1;rounded=0;" parent="1" edge="1">
          <mxGeometry width="50" height="50" relative="1" as="geometry">
            <mxPoint x="150" y="190" as="sourcePoint" />
            <mxPoint x="150" y="270" as="targetPoint" />
          </mxGeometry>
        </mxCell>
        <mxCell id="afZgGf9lb-E4JnagjFy--120" value="5" style="ellipse;whiteSpace=wrap;html=1;aspect=fixed;" parent="1" vertex="1">
          <mxGeometry x="120" y="180" width="20" height="20" as="geometry" />
        </mxCell>
        <mxCell id="afZgGf9lb-E4JnagjFy--121" value="client now has accessToken and refreshToken stored in cookies." style="text;whiteSpace=wrap;html=1;" parent="1" vertex="1">
          <mxGeometry x="10" y="170" width="110" height="70" as="geometry" />
        </mxCell>
        <mxCell id="afZgGf9lb-E4JnagjFy--123" value="accessToken expires in 15mins" style="text;whiteSpace=wrap;html=1;" parent="1" vertex="1">
          <mxGeometry x="10" y="250" width="110" height="40" as="geometry" />
        </mxCell>
        <mxCell id="afZgGf9lb-E4JnagjFy--124" value="6" style="ellipse;whiteSpace=wrap;html=1;aspect=fixed;" parent="1" vertex="1">
          <mxGeometry x="120" y="260" width="20" height="20" as="geometry" />
        </mxCell>
        <mxCell id="afZgGf9lb-E4JnagjFy--125" value="7" style="ellipse;whiteSpace=wrap;html=1;aspect=fixed;" parent="1" vertex="1">
          <mxGeometry x="210" y="240" width="20" height="20" as="geometry" />
        </mxCell>
        <mxCell id="afZgGf9lb-E4JnagjFy--127" value="" style="endArrow=classic;html=1;rounded=0;" parent="1" edge="1">
          <mxGeometry width="50" height="50" relative="1" as="geometry">
            <mxPoint x="160" y="270" as="sourcePoint" />
            <mxPoint x="700" y="290" as="targetPoint" />
          </mxGeometry>
        </mxCell>
        <mxCell id="afZgGf9lb-E4JnagjFy--128" value="client tries to send request &lt;br&gt;using&amp;nbsp;expired accessToken" style="text;whiteSpace=wrap;html=1;" parent="1" vertex="1">
          <mxGeometry x="240" y="230" width="150" height="40" as="geometry" />
        </mxCell>
        <mxCell id="afZgGf9lb-E4JnagjFy--129" value="8" style="ellipse;whiteSpace=wrap;html=1;aspect=fixed;" parent="1" vertex="1">
          <mxGeometry x="720" y="305" width="20" height="20" as="geometry" />
        </mxCell>
        <mxCell id="afZgGf9lb-E4JnagjFy--130" value="verifies that token is expired or invalid, then send 401 back to client" style="text;whiteSpace=wrap;html=1;" parent="1" vertex="1">
          <mxGeometry x="750" y="270" width="90" height="90" as="geometry" />
        </mxCell>
        <mxCell id="afZgGf9lb-E4JnagjFy--131" value="" style="endArrow=classic;html=1;rounded=0;" parent="1" edge="1">
          <mxGeometry width="50" height="50" relative="1" as="geometry">
            <mxPoint x="710" y="290" as="sourcePoint" />
            <mxPoint x="710" y="340" as="targetPoint" />
          </mxGeometry>
        </mxCell>
        <mxCell id="afZgGf9lb-E4JnagjFy--132" value="" style="endArrow=classic;html=1;rounded=0;" parent="1" edge="1">
          <mxGeometry width="50" height="50" relative="1" as="geometry">
            <mxPoint x="700" y="340" as="sourcePoint" />
            <mxPoint x="160" y="360" as="targetPoint" />
          </mxGeometry>
        </mxCell>
        <mxCell id="afZgGf9lb-E4JnagjFy--133" value="client gets 401, if refreshToken exists, stores the failed request in memory and sends the request to get new accessToken" style="text;whiteSpace=wrap;html=1;" parent="1" vertex="1">
          <mxGeometry x="10" y="330" width="110" height="110" as="geometry" />
        </mxCell>
        <mxCell id="afZgGf9lb-E4JnagjFy--134" value="9" style="ellipse;whiteSpace=wrap;html=1;aspect=fixed;" parent="1" vertex="1">
          <mxGeometry x="125" y="375" width="20" height="20" as="geometry" />
        </mxCell>
        <mxCell id="afZgGf9lb-E4JnagjFy--135" value="" style="endArrow=classic;html=1;rounded=0;" parent="1" edge="1">
          <mxGeometry width="50" height="50" relative="1" as="geometry">
            <mxPoint x="150" y="360" as="sourcePoint" />
            <mxPoint x="150" y="420" as="targetPoint" />
          </mxGeometry>
        </mxCell>
        <mxCell id="afZgGf9lb-E4JnagjFy--138" value="" style="endArrow=classic;html=1;rounded=0;" parent="1" edge="1">
          <mxGeometry width="50" height="50" relative="1" as="geometry">
            <mxPoint x="160" y="420" as="sourcePoint" />
            <mxPoint x="460" y="430" as="targetPoint" />
          </mxGeometry>
        </mxCell>
        <mxCell id="afZgGf9lb-E4JnagjFy--141" value="10" style="ellipse;whiteSpace=wrap;html=1;aspect=fixed;verticalAlign=middle;" parent="1" vertex="1">
          <mxGeometry x="480" y="440" width="20" height="20" as="geometry" />
        </mxCell>
        <mxCell id="afZgGf9lb-E4JnagjFy--142" value="verifies that refreshToken is in database or is not revoked, then generates and send new accessToken to client" style="text;whiteSpace=wrap;html=1;verticalAlign=middle;" parent="1" vertex="1">
          <mxGeometry x="510" y="410" width="150" height="80" as="geometry" />
        </mxCell>
        <mxCell id="afZgGf9lb-E4JnagjFy--143" value="" style="endArrow=classic;html=1;rounded=0;" parent="1" edge="1">
          <mxGeometry width="50" height="50" relative="1" as="geometry">
            <mxPoint x="469.52" y="430" as="sourcePoint" />
            <mxPoint x="470" y="480" as="targetPoint" />
          </mxGeometry>
        </mxCell>
        <mxCell id="afZgGf9lb-E4JnagjFy--145" value="" style="endArrow=classic;html=1;rounded=0;" parent="1" edge="1">
          <mxGeometry width="50" height="50" relative="1" as="geometry">
            <mxPoint x="460" y="480" as="sourcePoint" />
            <mxPoint x="160" y="490" as="targetPoint" />
          </mxGeometry>
        </mxCell>
        <mxCell id="afZgGf9lb-E4JnagjFy--146" value="11" style="ellipse;whiteSpace=wrap;html=1;aspect=fixed;verticalAlign=middle;" parent="1" vertex="1">
          <mxGeometry x="125" y="510" width="20" height="20" as="geometry" />
        </mxCell>
        <mxCell id="afZgGf9lb-E4JnagjFy--148" value="" style="endArrow=classic;html=1;rounded=0;" parent="1" edge="1">
          <mxGeometry width="50" height="50" relative="1" as="geometry">
            <mxPoint x="150" y="490" as="sourcePoint" />
            <mxPoint x="150" y="550" as="targetPoint" />
          </mxGeometry>
        </mxCell>
        <mxCell id="afZgGf9lb-E4JnagjFy--150" value="client gets new accessToken and&lt;br&gt;if there was failed request (due to 401), resend that request&amp;nbsp;" style="text;whiteSpace=wrap;html=1;" parent="1" vertex="1">
          <mxGeometry x="15" y="470" width="110" height="90" as="geometry" />
        </mxCell>
      </root>
    </mxGraphModel>
  </diagram>
  <diagram id="FxyMil00ZLIyqCyv6VTt" name="email verification">
    <mxGraphModel dx="780" dy="512" grid="1" gridSize="10" guides="1" tooltips="1" connect="1" arrows="1" fold="1" page="1" pageScale="1" pageWidth="850" pageHeight="1100" math="0" shadow="0">
      <root>
        <mxCell id="0" />
        <mxCell id="1" parent="0" />
        <mxCell id="rzqdtmUdN9_kNCboIDwx-3" style="edgeStyle=orthogonalEdgeStyle;rounded=0;orthogonalLoop=1;jettySize=auto;html=1;" parent="1" source="rzqdtmUdN9_kNCboIDwx-1" edge="1">
          <mxGeometry relative="1" as="geometry">
            <mxPoint x="100" y="280" as="targetPoint" />
          </mxGeometry>
        </mxCell>
        <mxCell id="rzqdtmUdN9_kNCboIDwx-1" value="Client" style="rounded=0;whiteSpace=wrap;html=1;" parent="1" vertex="1">
          <mxGeometry x="40" y="10" width="120" height="40" as="geometry" />
        </mxCell>
        <mxCell id="rzqdtmUdN9_kNCboIDwx-4" style="edgeStyle=orthogonalEdgeStyle;rounded=0;orthogonalLoop=1;jettySize=auto;html=1;" parent="1" source="rzqdtmUdN9_kNCboIDwx-2" edge="1">
          <mxGeometry relative="1" as="geometry">
            <mxPoint x="400" y="280" as="targetPoint" />
          </mxGeometry>
        </mxCell>
        <mxCell id="rzqdtmUdN9_kNCboIDwx-2" value="Identity" style="rounded=0;whiteSpace=wrap;html=1;" parent="1" vertex="1">
          <mxGeometry x="340" y="10" width="120" height="40" as="geometry" />
        </mxCell>
        <mxCell id="rzqdtmUdN9_kNCboIDwx-6" style="edgeStyle=orthogonalEdgeStyle;rounded=0;orthogonalLoop=1;jettySize=auto;html=1;" parent="1" source="rzqdtmUdN9_kNCboIDwx-5" edge="1">
          <mxGeometry relative="1" as="geometry">
            <mxPoint x="650" y="280" as="targetPoint" />
          </mxGeometry>
        </mxCell>
        <mxCell id="rzqdtmUdN9_kNCboIDwx-5" value="Email" style="rounded=0;whiteSpace=wrap;html=1;" parent="1" vertex="1">
          <mxGeometry x="590" y="10" width="120" height="40" as="geometry" />
        </mxCell>
        <mxCell id="rzqdtmUdN9_kNCboIDwx-7" value="" style="endArrow=classic;html=1;rounded=0;" parent="1" edge="1">
          <mxGeometry width="50" height="50" relative="1" as="geometry">
            <mxPoint x="100" y="90" as="sourcePoint" />
            <mxPoint x="400" y="100" as="targetPoint" />
          </mxGeometry>
        </mxCell>
        <mxCell id="OY8GCFbqptNtCHc6aLv9-1" value="1" style="ellipse;whiteSpace=wrap;html=1;aspect=fixed;" parent="1" vertex="1">
          <mxGeometry x="160" y="60" width="20" height="20" as="geometry" />
        </mxCell>
        <mxCell id="OY8GCFbqptNtCHc6aLv9-3" value="sends email and password &lt;br&gt;to create a new user&amp;nbsp;" style="text;html=1;align=left;verticalAlign=middle;resizable=0;points=[];autosize=1;strokeColor=none;fillColor=none;" parent="1" vertex="1">
          <mxGeometry x="190" y="50" width="170" height="40" as="geometry" />
        </mxCell>
        <mxCell id="OY8GCFbqptNtCHc6aLv9-4" value="2" style="ellipse;whiteSpace=wrap;html=1;aspect=fixed;" parent="1" vertex="1">
          <mxGeometry x="420" y="90" width="20" height="20" as="geometry" />
        </mxCell>
        <mxCell id="OY8GCFbqptNtCHc6aLv9-5" value="creates user, accessToken and&lt;br&gt;refreshToken, stores them" style="text;html=1;align=left;verticalAlign=middle;resizable=0;points=[];autosize=1;strokeColor=none;fillColor=none;" parent="1" vertex="1">
          <mxGeometry x="450" y="80" width="190" height="40" as="geometry" />
        </mxCell>
        <mxCell id="OY8GCFbqptNtCHc6aLv9-6" value="" style="endArrow=classic;html=1;rounded=0;" parent="1" edge="1">
          <mxGeometry width="50" height="50" relative="1" as="geometry">
            <mxPoint x="410" y="100" as="sourcePoint" />
            <mxPoint x="410" y="170" as="targetPoint" />
          </mxGeometry>
        </mxCell>
        <mxCell id="t9ReHljgKeqAVsQw3OR5-1" value="3" style="ellipse;whiteSpace=wrap;html=1;aspect=fixed;" parent="1" vertex="1">
          <mxGeometry x="420" y="160" width="20" height="20" as="geometry" />
        </mxCell>
        <mxCell id="t9ReHljgKeqAVsQw3OR5-2" value="creates a new email-invite token&lt;br&gt;stores in database and send event" style="text;html=1;align=left;verticalAlign=middle;resizable=0;points=[];autosize=1;strokeColor=none;fillColor=none;" parent="1" vertex="1">
          <mxGeometry x="450" y="150" width="210" height="40" as="geometry" />
        </mxCell>
        <mxCell id="Qms5zwvriHO_CVqRuxpV-1" value="" style="endArrow=classic;html=1;rounded=0;" parent="1" edge="1">
          <mxGeometry width="50" height="50" relative="1" as="geometry">
            <mxPoint x="400" y="220" as="sourcePoint" />
            <mxPoint x="650" y="240" as="targetPoint" />
          </mxGeometry>
        </mxCell>
        <mxCell id="Qms5zwvriHO_CVqRuxpV-2" value="4" style="ellipse;whiteSpace=wrap;html=1;aspect=fixed;" parent="1" vertex="1">
          <mxGeometry x="460" y="205" width="20" height="20" as="geometry" />
        </mxCell>
        <mxCell id="Qms5zwvriHO_CVqRuxpV-3" value="invite:emailVerification" style="text;html=1;align=left;verticalAlign=middle;resizable=0;points=[];autosize=1;strokeColor=none;fillColor=none;" parent="1" vertex="1">
          <mxGeometry x="490" y="200" width="140" height="30" as="geometry" />
        </mxCell>
        <mxCell id="Qms5zwvriHO_CVqRuxpV-4" value="5" style="ellipse;whiteSpace=wrap;html=1;aspect=fixed;" parent="1" vertex="1">
          <mxGeometry x="670" y="230" width="20" height="20" as="geometry" />
        </mxCell>
        <mxCell id="Qms5zwvriHO_CVqRuxpV-8" value="sends the email to users&lt;br&gt;email address" style="text;html=1;align=left;verticalAlign=middle;resizable=0;points=[];autosize=1;strokeColor=none;fillColor=none;" parent="1" vertex="1">
          <mxGeometry x="700" y="220" width="150" height="40" as="geometry" />
        </mxCell>
        <mxCell id="cgNDChvBQ3QJs1TsJUGd-1" value="" style="endArrow=classic;html=1;rounded=0;" parent="1" edge="1">
          <mxGeometry width="50" height="50" relative="1" as="geometry">
            <mxPoint x="400" y="170" as="sourcePoint" />
            <mxPoint x="100" y="180" as="targetPoint" />
          </mxGeometry>
        </mxCell>
        <mxCell id="cgNDChvBQ3QJs1TsJUGd-2" value="4" style="ellipse;whiteSpace=wrap;html=1;aspect=fixed;" parent="1" vertex="1">
          <mxGeometry x="150" y="130" width="20" height="20" as="geometry" />
        </mxCell>
        <mxCell id="cgNDChvBQ3QJs1TsJUGd-3" value="accessToken and refreshToken are&#xa;sent to client with Set-Cookie header&#xa;with HttpOnly flag" style="text;whiteSpace=wrap;html=1;" parent="1" vertex="1">
          <mxGeometry x="180" y="110" width="200" height="60" as="geometry" />
        </mxCell>
        <mxCell id="44z_dy0k_5mQ-o0SvpVb-2" value="6" style="ellipse;whiteSpace=wrap;html=1;aspect=fixed;" parent="1" vertex="1">
          <mxGeometry x="260" y="330" width="20" height="20" as="geometry" />
        </mxCell>
        <mxCell id="44z_dy0k_5mQ-o0SvpVb-3" value="user clicks on the link" style="text;html=1;align=left;verticalAlign=middle;resizable=0;points=[];autosize=1;strokeColor=none;fillColor=none;" parent="1" vertex="1">
          <mxGeometry x="290" y="325" width="140" height="30" as="geometry" />
        </mxCell>
        <mxCell id="44z_dy0k_5mQ-o0SvpVb-4" value="7" style="ellipse;whiteSpace=wrap;html=1;aspect=fixed;" parent="1" vertex="1">
          <mxGeometry x="260" y="385" width="20" height="20" as="geometry" />
        </mxCell>
        <mxCell id="44z_dy0k_5mQ-o0SvpVb-5" value="server validates that token&lt;br&gt;and sets is_email_verified &lt;br&gt;in the users table to true" style="text;html=1;align=left;verticalAlign=middle;resizable=0;points=[];autosize=1;strokeColor=none;fillColor=none;" parent="1" vertex="1">
          <mxGeometry x="290" y="365" width="160" height="60" as="geometry" />
        </mxCell>
      </root>
    </mxGraphModel>
  </diagram>
  <diagram id="xNvc4nVsZYL6UGjA8WYW" name="password reset">
    <mxGraphModel dx="780" dy="512" grid="1" gridSize="10" guides="1" tooltips="1" connect="1" arrows="1" fold="1" page="1" pageScale="1" pageWidth="850" pageHeight="1100" math="0" shadow="0">
      <root>
        <mxCell id="0" />
        <mxCell id="1" parent="0" />
        <mxCell id="RTKDE8ENzF3FyTxVMnIu-1" style="edgeStyle=orthogonalEdgeStyle;rounded=0;orthogonalLoop=1;jettySize=auto;html=1;" parent="1" source="RTKDE8ENzF3FyTxVMnIu-2" edge="1">
          <mxGeometry relative="1" as="geometry">
            <mxPoint x="100" y="280" as="targetPoint" />
          </mxGeometry>
        </mxCell>
        <mxCell id="RTKDE8ENzF3FyTxVMnIu-2" value="Client" style="rounded=0;whiteSpace=wrap;html=1;" parent="1" vertex="1">
          <mxGeometry x="40" y="10" width="120" height="40" as="geometry" />
        </mxCell>
        <mxCell id="RTKDE8ENzF3FyTxVMnIu-3" style="edgeStyle=orthogonalEdgeStyle;rounded=0;orthogonalLoop=1;jettySize=auto;html=1;" parent="1" source="RTKDE8ENzF3FyTxVMnIu-4" edge="1">
          <mxGeometry relative="1" as="geometry">
            <mxPoint x="400" y="280" as="targetPoint" />
          </mxGeometry>
        </mxCell>
        <mxCell id="RTKDE8ENzF3FyTxVMnIu-4" value="Identity" style="rounded=0;whiteSpace=wrap;html=1;" parent="1" vertex="1">
          <mxGeometry x="340" y="10" width="120" height="40" as="geometry" />
        </mxCell>
        <mxCell id="RTKDE8ENzF3FyTxVMnIu-5" style="edgeStyle=orthogonalEdgeStyle;rounded=0;orthogonalLoop=1;jettySize=auto;html=1;" parent="1" source="RTKDE8ENzF3FyTxVMnIu-6" edge="1">
          <mxGeometry relative="1" as="geometry">
            <mxPoint x="650" y="280" as="targetPoint" />
          </mxGeometry>
        </mxCell>
        <mxCell id="RTKDE8ENzF3FyTxVMnIu-6" value="Email" style="rounded=0;whiteSpace=wrap;html=1;" parent="1" vertex="1">
          <mxGeometry x="590" y="10" width="120" height="40" as="geometry" />
        </mxCell>
        <mxCell id="RTKDE8ENzF3FyTxVMnIu-7" value="" style="endArrow=classic;html=1;rounded=0;" parent="1" edge="1">
          <mxGeometry width="50" height="50" relative="1" as="geometry">
            <mxPoint x="100" y="90" as="sourcePoint" />
            <mxPoint x="400" y="100" as="targetPoint" />
          </mxGeometry>
        </mxCell>
        <mxCell id="RTKDE8ENzF3FyTxVMnIu-8" value="1" style="ellipse;whiteSpace=wrap;html=1;aspect=fixed;" parent="1" vertex="1">
          <mxGeometry x="160" y="60" width="20" height="20" as="geometry" />
        </mxCell>
        <mxCell id="RTKDE8ENzF3FyTxVMnIu-9" value="clicks on reset password link and&amp;nbsp;&lt;br&gt;sends username or email" style="text;html=1;align=left;verticalAlign=middle;resizable=0;points=[];autosize=1;strokeColor=none;fillColor=none;" parent="1" vertex="1">
          <mxGeometry x="190" y="50" width="200" height="40" as="geometry" />
        </mxCell>
        <mxCell id="RTKDE8ENzF3FyTxVMnIu-10" value="2" style="ellipse;whiteSpace=wrap;html=1;aspect=fixed;" parent="1" vertex="1">
          <mxGeometry x="420" y="90" width="20" height="20" as="geometry" />
        </mxCell>
        <mxCell id="RTKDE8ENzF3FyTxVMnIu-11" value="check if the user with &lt;br&gt;email or password exists" style="text;html=1;align=left;verticalAlign=middle;resizable=0;points=[];autosize=1;strokeColor=none;fillColor=none;" parent="1" vertex="1">
          <mxGeometry x="450" y="80" width="150" height="40" as="geometry" />
        </mxCell>
        <mxCell id="RTKDE8ENzF3FyTxVMnIu-12" value="" style="endArrow=classic;html=1;rounded=0;" parent="1" edge="1">
          <mxGeometry width="50" height="50" relative="1" as="geometry">
            <mxPoint x="410" y="100" as="sourcePoint" />
            <mxPoint x="410" y="170" as="targetPoint" />
          </mxGeometry>
        </mxCell>
        <mxCell id="RTKDE8ENzF3FyTxVMnIu-13" value="3" style="ellipse;whiteSpace=wrap;html=1;aspect=fixed;" parent="1" vertex="1">
          <mxGeometry x="420" y="160" width="20" height="20" as="geometry" />
        </mxCell>
        <mxCell id="RTKDE8ENzF3FyTxVMnIu-14" value="creates a reset_password_token" style="text;html=1;align=left;verticalAlign=middle;resizable=0;points=[];autosize=1;strokeColor=none;fillColor=none;" parent="1" vertex="1">
          <mxGeometry x="450" y="155" width="200" height="30" as="geometry" />
        </mxCell>
        <mxCell id="RTKDE8ENzF3FyTxVMnIu-15" value="" style="endArrow=classic;html=1;rounded=0;" parent="1" edge="1">
          <mxGeometry width="50" height="50" relative="1" as="geometry">
            <mxPoint x="400" y="220" as="sourcePoint" />
            <mxPoint x="650" y="240" as="targetPoint" />
          </mxGeometry>
        </mxCell>
        <mxCell id="RTKDE8ENzF3FyTxVMnIu-16" value="4" style="ellipse;whiteSpace=wrap;html=1;aspect=fixed;" parent="1" vertex="1">
          <mxGeometry x="460" y="205" width="20" height="20" as="geometry" />
        </mxCell>
        <mxCell id="RTKDE8ENzF3FyTxVMnIu-17" value="invite:sendResetEmail" style="text;html=1;align=left;verticalAlign=middle;resizable=0;points=[];autosize=1;strokeColor=none;fillColor=none;" parent="1" vertex="1">
          <mxGeometry x="490" y="200" width="140" height="30" as="geometry" />
        </mxCell>
        <mxCell id="RTKDE8ENzF3FyTxVMnIu-18" value="5" style="ellipse;whiteSpace=wrap;html=1;aspect=fixed;" parent="1" vertex="1">
          <mxGeometry x="670" y="230" width="20" height="20" as="geometry" />
        </mxCell>
        <mxCell id="RTKDE8ENzF3FyTxVMnIu-19" value="sends the email to users&lt;br&gt;email address" style="text;html=1;align=left;verticalAlign=middle;resizable=0;points=[];autosize=1;strokeColor=none;fillColor=none;" parent="1" vertex="1">
          <mxGeometry x="700" y="220" width="150" height="40" as="geometry" />
        </mxCell>
        <mxCell id="RTKDE8ENzF3FyTxVMnIu-23" value="6" style="ellipse;whiteSpace=wrap;html=1;aspect=fixed;" parent="1" vertex="1">
          <mxGeometry x="20" y="330" width="20" height="20" as="geometry" />
        </mxCell>
        <mxCell id="RTKDE8ENzF3FyTxVMnIu-25" value="user clicks on the link" style="text;html=1;align=left;verticalAlign=middle;resizable=0;points=[];autosize=1;strokeColor=none;fillColor=none;" parent="1" vertex="1">
          <mxGeometry x="50" y="325" width="140" height="30" as="geometry" />
        </mxCell>
        <mxCell id="RTKDE8ENzF3FyTxVMnIu-26" value="7" style="ellipse;whiteSpace=wrap;html=1;aspect=fixed;" parent="1" vertex="1">
          <mxGeometry x="20" y="375" width="20" height="20" as="geometry" />
        </mxCell>
        <mxCell id="RTKDE8ENzF3FyTxVMnIu-27" value="server validates the token&lt;br&gt;redirects the client to some password page" style="text;html=1;align=left;verticalAlign=middle;resizable=0;points=[];autosize=1;strokeColor=none;fillColor=none;" parent="1" vertex="1">
          <mxGeometry x="50" y="365" width="250" height="40" as="geometry" />
        </mxCell>
        <mxCell id="RTKDE8ENzF3FyTxVMnIu-28" value="8" style="ellipse;whiteSpace=wrap;html=1;aspect=fixed;" parent="1" vertex="1">
          <mxGeometry x="20" y="430" width="20" height="20" as="geometry" />
        </mxCell>
        <mxCell id="RTKDE8ENzF3FyTxVMnIu-29" value="post reqest to reset-password endpoint with &lt;br&gt;new password and email and token" style="text;html=1;align=left;verticalAlign=middle;resizable=0;points=[];autosize=1;strokeColor=none;fillColor=none;" parent="1" vertex="1">
          <mxGeometry x="50" y="420" width="260" height="40" as="geometry" />
        </mxCell>
        <mxCell id="RTKDE8ENzF3FyTxVMnIu-30" value="8" style="ellipse;whiteSpace=wrap;html=1;aspect=fixed;" parent="1" vertex="1">
          <mxGeometry x="20" y="470" width="20" height="20" as="geometry" />
        </mxCell>
        <mxCell id="RTKDE8ENzF3FyTxVMnIu-31" value="auth resets the password" style="text;html=1;align=left;verticalAlign=middle;resizable=0;points=[];autosize=1;strokeColor=none;fillColor=none;" parent="1" vertex="1">
          <mxGeometry x="50" y="465" width="160" height="30" as="geometry" />
        </mxCell>
      </root>
    </mxGraphModel>
  </diagram>
  <diagram id="Qc3JsAXv84c3X8GJAdBh" name="logout">
    <mxGraphModel dx="1050" dy="703" grid="1" gridSize="10" guides="1" tooltips="1" connect="1" arrows="1" fold="1" page="1" pageScale="1" pageWidth="850" pageHeight="1100" math="0" shadow="0">
      <root>
        <mxCell id="0" />
        <mxCell id="1" parent="0" />
        <mxCell id="yaKxpClYLloAEvlHIXXF-1" style="edgeStyle=orthogonalEdgeStyle;rounded=0;orthogonalLoop=1;jettySize=auto;html=1;" edge="1" parent="1" source="yaKxpClYLloAEvlHIXXF-2">
          <mxGeometry relative="1" as="geometry">
            <mxPoint x="100" y="280" as="targetPoint" />
          </mxGeometry>
        </mxCell>
        <mxCell id="yaKxpClYLloAEvlHIXXF-2" value="Client" style="rounded=0;whiteSpace=wrap;html=1;" vertex="1" parent="1">
          <mxGeometry x="40" y="10" width="120" height="40" as="geometry" />
        </mxCell>
        <mxCell id="yaKxpClYLloAEvlHIXXF-3" style="edgeStyle=orthogonalEdgeStyle;rounded=0;orthogonalLoop=1;jettySize=auto;html=1;" edge="1" parent="1" source="yaKxpClYLloAEvlHIXXF-4">
          <mxGeometry relative="1" as="geometry">
            <mxPoint x="400" y="280" as="targetPoint" />
          </mxGeometry>
        </mxCell>
        <mxCell id="yaKxpClYLloAEvlHIXXF-4" value="Identity" style="rounded=0;whiteSpace=wrap;html=1;" vertex="1" parent="1">
          <mxGeometry x="340" y="10" width="120" height="40" as="geometry" />
        </mxCell>
        <mxCell id="yaKxpClYLloAEvlHIXXF-5" style="edgeStyle=orthogonalEdgeStyle;rounded=0;orthogonalLoop=1;jettySize=auto;html=1;" edge="1" parent="1" source="yaKxpClYLloAEvlHIXXF-6">
          <mxGeometry relative="1" as="geometry">
            <mxPoint x="650" y="280" as="targetPoint" />
          </mxGeometry>
        </mxCell>
        <mxCell id="yaKxpClYLloAEvlHIXXF-6" value="Email" style="rounded=0;whiteSpace=wrap;html=1;" vertex="1" parent="1">
          <mxGeometry x="590" y="10" width="120" height="40" as="geometry" />
        </mxCell>
        <mxCell id="yaKxpClYLloAEvlHIXXF-7" value="" style="endArrow=classic;html=1;rounded=0;" edge="1" parent="1">
          <mxGeometry width="50" height="50" relative="1" as="geometry">
            <mxPoint x="100" y="90" as="sourcePoint" />
            <mxPoint x="400" y="100" as="targetPoint" />
          </mxGeometry>
        </mxCell>
        <mxCell id="yaKxpClYLloAEvlHIXXF-8" value="1" style="ellipse;whiteSpace=wrap;html=1;aspect=fixed;" vertex="1" parent="1">
          <mxGeometry x="160" y="60" width="20" height="20" as="geometry" />
        </mxCell>
        <mxCell id="yaKxpClYLloAEvlHIXXF-9" value="clicks on the logout button" style="text;html=1;align=left;verticalAlign=middle;resizable=0;points=[];autosize=1;strokeColor=none;fillColor=none;" vertex="1" parent="1">
          <mxGeometry x="190" y="55" width="160" height="30" as="geometry" />
        </mxCell>
        <mxCell id="yaKxpClYLloAEvlHIXXF-10" value="2" style="ellipse;whiteSpace=wrap;html=1;aspect=fixed;" vertex="1" parent="1">
          <mxGeometry x="420" y="90" width="20" height="20" as="geometry" />
        </mxCell>
        <mxCell id="yaKxpClYLloAEvlHIXXF-11" value="removes the accessToken&lt;br&gt;and refreshToken" style="text;html=1;align=left;verticalAlign=middle;resizable=0;points=[];autosize=1;strokeColor=none;fillColor=none;" vertex="1" parent="1">
          <mxGeometry x="450" y="80" width="160" height="40" as="geometry" />
        </mxCell>
        <mxCell id="yaKxpClYLloAEvlHIXXF-12" value="" style="endArrow=classic;html=1;rounded=0;" edge="1" parent="1">
          <mxGeometry width="50" height="50" relative="1" as="geometry">
            <mxPoint x="410" y="100" as="sourcePoint" />
            <mxPoint x="410" y="170" as="targetPoint" />
          </mxGeometry>
        </mxCell>
        <mxCell id="yaKxpClYLloAEvlHIXXF-13" value="3" style="ellipse;whiteSpace=wrap;html=1;aspect=fixed;" vertex="1" parent="1">
          <mxGeometry x="420" y="160" width="20" height="20" as="geometry" />
        </mxCell>
        <mxCell id="yaKxpClYLloAEvlHIXXF-14" value="creates a reset_password_token" style="text;html=1;align=left;verticalAlign=middle;resizable=0;points=[];autosize=1;strokeColor=none;fillColor=none;" vertex="1" parent="1">
          <mxGeometry x="450" y="155" width="200" height="30" as="geometry" />
        </mxCell>
        <mxCell id="yaKxpClYLloAEvlHIXXF-15" value="" style="endArrow=classic;html=1;rounded=0;" edge="1" parent="1">
          <mxGeometry width="50" height="50" relative="1" as="geometry">
            <mxPoint x="400" y="220" as="sourcePoint" />
            <mxPoint x="650" y="240" as="targetPoint" />
          </mxGeometry>
        </mxCell>
        <mxCell id="yaKxpClYLloAEvlHIXXF-16" value="4" style="ellipse;whiteSpace=wrap;html=1;aspect=fixed;" vertex="1" parent="1">
          <mxGeometry x="460" y="205" width="20" height="20" as="geometry" />
        </mxCell>
        <mxCell id="yaKxpClYLloAEvlHIXXF-17" value="invite:sendResetEmail" style="text;html=1;align=left;verticalAlign=middle;resizable=0;points=[];autosize=1;strokeColor=none;fillColor=none;" vertex="1" parent="1">
          <mxGeometry x="490" y="200" width="140" height="30" as="geometry" />
        </mxCell>
        <mxCell id="yaKxpClYLloAEvlHIXXF-18" value="5" style="ellipse;whiteSpace=wrap;html=1;aspect=fixed;" vertex="1" parent="1">
          <mxGeometry x="670" y="230" width="20" height="20" as="geometry" />
        </mxCell>
        <mxCell id="yaKxpClYLloAEvlHIXXF-19" value="sends the email to users&lt;br&gt;email address" style="text;html=1;align=left;verticalAlign=middle;resizable=0;points=[];autosize=1;strokeColor=none;fillColor=none;" vertex="1" parent="1">
          <mxGeometry x="700" y="220" width="150" height="40" as="geometry" />
        </mxCell>
      </root>
    </mxGraphModel>
  </diagram>
</mxfile>
